<svg width="14" height="14" viewBox="0 0 14 14" fill="none" xmlns="http://www.w3.org/2000/svg">
<g clip-path="url(#clip0_1076_658)">
<path d="M13.5504 1.15583C13.2772 1.0505 12.9671 1.1198 12.7679 1.32768L9.97358 4.80626L7.61179 0.340929C7.48374 0.130274 7.25325 0 7 0C6.74675 0 6.51341 0.130274 6.38821 0.340929L4.02642 4.80626L1.23211 1.33045C1.03293 1.12257 0.722764 1.05328 0.449593 1.1586C0.179268 1.26116 0 1.51616 0 1.80166V10.3413V10.6739V12.1983C0 13.1906 0.830894 14 1.84959 14H12.1504C13.1691 14 14 13.1906 14 12.1983V10.6739V10.3413V1.80166C14 1.51616 13.8207 1.26116 13.5504 1.15583Z" fill="#FEB602"/>
</g>
<defs>
<clipPath id="clip0_1076_658">
<rect width="14" height="14" fill="white"/>
</clipPath>
</defs>
</svg>
